<svg xmlns="http://www.w3.org/2000/svg" width="16" height="16" viewBox="0 0 16 16">
  <path fill="" fill-rule="evenodd" d="M6.60491115,10.393155 C6.08045635,10.1405737 5.49242253,9.9992378 4.87132141,9.9992378 C3.01413652,9.9992378 1.44743232,11.2733544 1,12.9988567 L5.87119489,12.9988567 L5.87119523,12.9982763 C5.87174918,12.0439692 6.14007094,11.1519051 6.60491115,10.393155 L6.60491115,10.393155 Z M4.8695035,8.99936483 C3.76507431,8.99936483 2.86975756,8.10404808 2.86975756,6.9996189 C2.86975756,5.89518972 3.76507431,4.99987297 4.8695035,4.99987297 C5.97393268,4.99987297 6.86924943,5.89518972 6.86924943,6.9996189 C6.86924943,8.10404808 5.97393268,8.99936483 4.8695035,8.99936483 Z M11.2705099,7.99949186 C10.1660807,7.99949186 9.27076399,7.10417511 9.27076399,5.99974593 C9.27076399,4.89531675 10.1660807,4 11.2705099,4 C12.3749391,4 13.2702558,4.89531675 13.2702558,5.99974593 C13.2702558,7.10417511 12.3749391,7.99949186 11.2705099,7.99949186 Z M7.2710181,12.9988567 C7.27230041,10.7897788 9.0669332,8.99936483 11.2705093,8.99936483 C13.4785784,8.99936483 15.2687214,10.7896789 15.2700005,12.9988567 L7.27101805,12.9988567 L7.2710181,12.9988567 Z"/>
</svg>
