<svg xmlns="http://www.w3.org/2000/svg" width="16" height="16" viewBox="0 0 16 16">
  <path fill="" d="M5.30000305,9.61164477 L5.30000305,10.2549303 C5.30000305,11.0872758 5.96970237,11.7565957 6.80000305,11.7565957 C7.60158707,11.7565957 8.25914579,11.130838 8.29740906,10.3350564 L8.29740906,10.3343089 L9.75302124,10.6852519 C9.66062461,12.03924 8.45348594,13.2565957 6.80000305,13.2565957 C5.1431488,13.2565957 3.80000305,11.9175756 3.80000305,10.2549303 L3.80000305,9.25 L5.30000305,9.61164477 Z M3,5.5640553 C3,5.28775321 3.21398067,5.01255085 3.48839319,4.94687151 L10.5116068,3.2658985 C10.7813389,3.2013394 11,3.37198038 11,3.6527182 L11,9.34695735 C11,9.62515107 10.7860193,9.79945638 10.5116068,9.73377705 L3.48839319,8.05280404 C3.21866108,7.98824493 3,7.71053717 3,7.43562025 L3,5.5640553 Z M12,2.89585781 C12,2.4010892 12.3994783,2 12.9,2 C13.3970562,2 13.8,2.41009796 13.8,2.89585781 L13.8,10.1041422 C13.8,10.5989108 13.4005216,11 12.9,11 C12.4029437,11 12,10.589902 12,10.1041422 L12,2.89585781 Z"/>
</svg>
