<svg xmlns="http://www.w3.org/2000/svg" width="24" height="24" viewBox="0 0 24 24">
  <g fill="" fill-rule="evenodd">
    <path d="M18.6219757,10 L16.2916499,12.319079 C15.9096557,12.6992296 15.9040341,13.3274522 16.2899218,13.7114775 C16.6784998,14.0981801 17.3022308,14.0947328 17.689073,13.7097577 L21.7083501,9.70987879 C21.877687,9.54135918 21.973062,9.32409042 21.9931567,9.10095566 C22.0275763,8.81147117 21.9320821,8.5099635 21.7083501,8.28731133 L17.689073,4.28743242 C17.3070788,3.90728182 16.6758095,3.90168733 16.2899218,4.28571264 C15.9013437,4.67241531 15.9048078,5.29313599 16.2916499,5.67811112 L18.6247993,8 L10.9955775,8 C10.444837,8 10,8.44771525 10,9 C10,9.55613518 10.4457352,10 10.9955775,10 L18.6219757,10 Z"/>
    <path d="M10.6219757,16 L8.2916499,18.319079 C7.90965568,18.6992296 7.90403405,19.3274522 8.28992178,19.7114775 C8.67849984,20.0981801 9.30223083,20.0947328 9.68907297,19.7097577 L13.7083501,15.7098788 C13.877687,15.5413592 13.973062,15.3240904 13.9931567,15.1009557 C14.0275763,14.8114712 13.9320821,14.5099635 13.7083501,14.2873113 L9.68907297,10.2874324 C9.30707875,9.90728182 8.6758095,9.90168733 8.28992178,10.2857126 C7.90134371,10.6724153 7.90480776,11.293136 8.2916499,11.6781111 L10.6247993,14 L2.9955775,14 C2.44483697,14 2,14.4477153 2,15 C2,15.5561352 2.44573523,16 2.9955775,16 L10.6219757,16 Z" transform="matrix(-1 0 0 1 16 0)"/>
  </g>
</svg>
